{
	"patcher" : 	{
		"fileversion" : 1,
		"rect" : [ 1776.0, 159.0, 1061.0, 755.0 ],
		"bglocked" : 0,
		"defrect" : [ 1776.0, 159.0, 1061.0, 755.0 ],
		"openrect" : [ 0.0, 0.0, 0.0, 0.0 ],
		"openinpresentation" : 0,
		"default_fontsize" : 12.0,
		"default_fontface" : 0,
		"default_fontname" : "Arial",
		"gridonopen" : 0,
		"gridsize" : [ 15.0, 15.0 ],
		"gridsnaponopen" : 0,
		"toolbarvisible" : 1,
		"boxanimatetime" : 200,
		"imprint" : 0,
		"enablehscroll" : 1,
		"enablevscroll" : 1,
		"devicewidth" : 0.0,
		"boxes" : [ 			{
				"box" : 				{
					"maxclass" : "newobj",
					"text" : "t l bang",
					"numoutlets" : 2,
					"fontsize" : 12.0,
					"outlettype" : [ "", "bang" ],
					"fontname" : "Arial",
					"patching_rect" : [ 315.0, 420.0, 50.0, 20.0 ],
					"numinlets" : 1,
					"id" : "obj-18"
				}

			}
, 			{
				"box" : 				{
					"maxclass" : "message",
					"numoutlets" : 1,
					"fontsize" : 12.0,
					"outlettype" : [ "" ],
					"fontname" : "Arial",
					"patching_rect" : [ 285.0, 480.0, 50.0, 18.0 ],
					"numinlets" : 2,
					"id" : "obj-17"
				}

			}
, 			{
				"box" : 				{
					"maxclass" : "newobj",
					"text" : "counter 1000",
					"numoutlets" : 4,
					"fontsize" : 12.0,
					"outlettype" : [ "int", "", "", "int" ],
					"fontname" : "Arial",
					"patching_rect" : [ 345.0, 450.0, 81.0, 20.0 ],
					"numinlets" : 5,
					"id" : "obj-6"
				}

			}
, 			{
				"box" : 				{
					"maxclass" : "newobj",
					"text" : "t b l",
					"numoutlets" : 2,
					"fontsize" : 12.0,
					"outlettype" : [ "bang", "" ],
					"fontname" : "Arial",
					"patching_rect" : [ 106.0, 99.0, 32.5, 20.0 ],
					"numinlets" : 1,
					"id" : "obj-15"
				}

			}
, 			{
				"box" : 				{
					"maxclass" : "button",
					"numoutlets" : 1,
					"outlettype" : [ "bang" ],
					"patching_rect" : [ 286.0, 167.0, 20.0, 20.0 ],
					"numinlets" : 1,
					"id" : "obj-10"
				}

			}
, 			{
				"box" : 				{
					"maxclass" : "message",
					"text" : "dump",
					"numoutlets" : 1,
					"fontsize" : 12.0,
					"outlettype" : [ "" ],
					"fontname" : "Arial",
					"patching_rect" : [ 286.0, 205.0, 41.0, 18.0 ],
					"numinlets" : 2,
					"id" : "obj-14"
				}

			}
, 			{
				"box" : 				{
					"maxclass" : "newobj",
					"text" : "text",
					"numoutlets" : 3,
					"fontsize" : 12.0,
					"outlettype" : [ "", "bang", "int" ],
					"fontname" : "Arial",
					"patching_rect" : [ 229.0, 237.0, 46.0, 20.0 ],
					"numinlets" : 1,
					"id" : "obj-8"
				}

			}
, 			{
				"box" : 				{
					"maxclass" : "outlet",
					"numoutlets" : 0,
					"patching_rect" : [ 1005.0, 660.0, 25.0, 25.0 ],
					"numinlets" : 1,
					"id" : "obj-3",
					"comment" : ""
				}

			}
, 			{
				"box" : 				{
					"maxclass" : "outlet",
					"numoutlets" : 0,
					"patching_rect" : [ 404.0, 720.0, 25.0, 25.0 ],
					"numinlets" : 1,
					"id" : "obj-13",
					"comment" : ""
				}

			}
, 			{
				"box" : 				{
					"maxclass" : "button",
					"numoutlets" : 1,
					"outlettype" : [ "bang" ],
					"patching_rect" : [ 795.0, 451.0, 20.0, 20.0 ],
					"numinlets" : 1,
					"id" : "obj-12"
				}

			}
, 			{
				"box" : 				{
					"maxclass" : "button",
					"numoutlets" : 1,
					"outlettype" : [ "bang" ],
					"patching_rect" : [ 60.0, 599.0, 20.0, 20.0 ],
					"numinlets" : 1,
					"id" : "obj-11"
				}

			}
, 			{
				"box" : 				{
					"maxclass" : "button",
					"numoutlets" : 1,
					"outlettype" : [ "bang" ],
					"patching_rect" : [ 211.0, 140.0, 20.0, 20.0 ],
					"numinlets" : 1,
					"id" : "obj-9"
				}

			}
, 			{
				"box" : 				{
					"maxclass" : "button",
					"numoutlets" : 1,
					"outlettype" : [ "bang" ],
					"patching_rect" : [ 28.0, 101.0, 20.0, 20.0 ],
					"numinlets" : 1,
					"id" : "obj-7"
				}

			}
, 			{
				"box" : 				{
					"maxclass" : "newobj",
					"text" : "sprintf read %s",
					"numoutlets" : 1,
					"fontsize" : 12.0,
					"outlettype" : [ "" ],
					"fontname" : "Arial",
					"patching_rect" : [ 96.0, 172.0, 91.0, 20.0 ],
					"numinlets" : 1,
					"id" : "obj-5"
				}

			}
, 			{
				"box" : 				{
					"maxclass" : "message",
					"text" : "clear",
					"numoutlets" : 1,
					"fontsize" : 12.0,
					"outlettype" : [ "" ],
					"fontname" : "Arial",
					"patching_rect" : [ 28.0, 134.0, 37.0, 18.0 ],
					"numinlets" : 2,
					"id" : "obj-4"
				}

			}
, 			{
				"box" : 				{
					"maxclass" : "newobj",
					"text" : "route set",
					"numoutlets" : 2,
					"fontsize" : 12.0,
					"outlettype" : [ "", "" ],
					"fontname" : "Arial",
					"patching_rect" : [ 360.0, 315.0, 57.0, 20.0 ],
					"numinlets" : 1,
					"id" : "obj-68"
				}

			}
, 			{
				"box" : 				{
					"maxclass" : "newobj",
					"text" : "substitute float sfloat",
					"numoutlets" : 2,
					"fontsize" : 12.0,
					"outlettype" : [ "", "" ],
					"fontname" : "Arial",
					"patching_rect" : [ 316.0, 282.0, 120.0, 20.0 ],
					"numinlets" : 2,
					"id" : "obj-63"
				}

			}
, 			{
				"box" : 				{
					"maxclass" : "button",
					"numoutlets" : 1,
					"outlettype" : [ "bang" ],
					"patching_rect" : [ 698.0, 526.0, 20.0, 20.0 ],
					"numinlets" : 1,
					"id" : "obj-53"
				}

			}
, 			{
				"box" : 				{
					"maxclass" : "message",
					"text" : "cr",
					"numoutlets" : 1,
					"fontsize" : 12.0,
					"outlettype" : [ "" ],
					"fontname" : "Arial",
					"patching_rect" : [ 696.0, 552.0, 32.5, 18.0 ],
					"numinlets" : 2,
					"id" : "obj-54"
				}

			}
, 			{
				"box" : 				{
					"maxclass" : "button",
					"numoutlets" : 1,
					"outlettype" : [ "bang" ],
					"patching_rect" : [ 138.0, 687.0, 20.0, 20.0 ],
					"numinlets" : 1,
					"id" : "obj-52"
				}

			}
, 			{
				"box" : 				{
					"maxclass" : "message",
					"text" : "cr",
					"numoutlets" : 1,
					"fontsize" : 12.0,
					"outlettype" : [ "" ],
					"fontname" : "Arial",
					"patching_rect" : [ 136.0, 713.0, 32.5, 18.0 ],
					"numinlets" : 2,
					"id" : "obj-50"
				}

			}
, 			{
				"box" : 				{
					"maxclass" : "message",
					"text" : "dump",
					"numoutlets" : 1,
					"fontsize" : 12.0,
					"outlettype" : [ "" ],
					"fontname" : "Arial",
					"patching_rect" : [ 61.0, 640.0, 41.0, 18.0 ],
					"numinlets" : 2,
					"id" : "obj-44"
				}

			}
, 			{
				"box" : 				{
					"maxclass" : "message",
					"text" : "dump",
					"numoutlets" : 1,
					"fontsize" : 12.0,
					"outlettype" : [ "" ],
					"fontname" : "Arial",
					"patching_rect" : [ 797.0, 489.0, 41.0, 18.0 ],
					"numinlets" : 2,
					"id" : "obj-41"
				}

			}
, 			{
				"box" : 				{
					"maxclass" : "newobj",
					"text" : "sprintf \"<param name='%s' type='vec4' default='0. 0. 0. 0.' />\"",
					"numoutlets" : 1,
					"fontsize" : 12.0,
					"outlettype" : [ "" ],
					"fontname" : "Arial",
					"patching_rect" : [ 343.0, 616.0, 335.0, 20.0 ],
					"numinlets" : 1,
					"id" : "obj-40"
				}

			}
, 			{
				"box" : 				{
					"maxclass" : "newobj",
					"text" : "sprintf \"<param name='%s' type='vec2' default='0. 0.' />\"",
					"numoutlets" : 1,
					"fontsize" : 12.0,
					"outlettype" : [ "" ],
					"fontname" : "Arial",
					"patching_rect" : [ 272.0, 592.0, 309.0, 20.0 ],
					"numinlets" : 1,
					"id" : "obj-39"
				}

			}
, 			{
				"box" : 				{
					"maxclass" : "newobj",
					"text" : "sprintf \"<param name='%s' type='float' default='0.' />\"",
					"numoutlets" : 1,
					"fontsize" : 12.0,
					"outlettype" : [ "" ],
					"fontname" : "Arial",
					"patching_rect" : [ 201.0, 569.0, 293.0, 20.0 ],
					"numinlets" : 1,
					"id" : "obj-37"
				}

			}
, 			{
				"box" : 				{
					"maxclass" : "newobj",
					"text" : "sprintf \"<bind param='%s' program='fp' />\"",
					"numoutlets" : 1,
					"fontsize" : 12.0,
					"outlettype" : [ "" ],
					"fontname" : "Arial",
					"patching_rect" : [ 720.0, 420.0, 234.0, 20.0 ],
					"numinlets" : 1,
					"id" : "obj-36"
				}

			}
, 			{
				"box" : 				{
					"maxclass" : "newobj",
					"text" : "sprintf \"<param name='%s' type='int' default='%i' />\"",
					"numoutlets" : 1,
					"fontsize" : 12.0,
					"outlettype" : [ "" ],
					"fontname" : "Arial",
					"patching_rect" : [ 135.0, 540.0, 286.0, 20.0 ],
					"numinlets" : 2,
					"id" : "obj-35"
				}

			}
, 			{
				"box" : 				{
					"maxclass" : "newobj",
					"text" : "text",
					"numoutlets" : 3,
					"fontsize" : 12.0,
					"outlettype" : [ "", "bang", "int" ],
					"fontname" : "Arial",
					"patching_rect" : [ 766.0, 520.0, 46.0, 20.0 ],
					"numinlets" : 1,
					"id" : "obj-34"
				}

			}
, 			{
				"box" : 				{
					"maxclass" : "newobj",
					"text" : "text",
					"numoutlets" : 3,
					"fontsize" : 12.0,
					"outlettype" : [ "", "bang", "int" ],
					"fontname" : "Arial",
					"patching_rect" : [ 229.0, 681.0, 46.0, 20.0 ],
					"numinlets" : 1,
					"id" : "obj-33"
				}

			}
, 			{
				"box" : 				{
					"maxclass" : "newobj",
					"text" : "route sampler2DRect sfloat vec2 vec4 sampler1D sampler2D",
					"numoutlets" : 7,
					"fontsize" : 12.0,
					"outlettype" : [ "", "", "", "", "", "", "" ],
					"fontname" : "Arial",
					"patching_rect" : [ 360.0, 375.0, 336.0, 20.0 ],
					"numinlets" : 1,
					"id" : "obj-29"
				}

			}
, 			{
				"box" : 				{
					"maxclass" : "newobj",
					"text" : "route uniform",
					"numoutlets" : 2,
					"fontsize" : 12.0,
					"outlettype" : [ "", "" ],
					"fontname" : "Arial",
					"patching_rect" : [ 360.0, 345.0, 81.0, 20.0 ],
					"numinlets" : 1,
					"id" : "obj-28"
				}

			}
, 			{
				"box" : 				{
					"maxclass" : "message",
					"text" : "dump",
					"numoutlets" : 1,
					"fontsize" : 12.0,
					"outlettype" : [ "" ],
					"fontname" : "Arial",
					"patching_rect" : [ 211.0, 198.0, 41.0, 18.0 ],
					"numinlets" : 2,
					"id" : "obj-25"
				}

			}
, 			{
				"box" : 				{
					"maxclass" : "newobj",
					"text" : "text",
					"numoutlets" : 3,
					"fontsize" : 12.0,
					"outlettype" : [ "", "bang", "int" ],
					"fontname" : "Arial",
					"patching_rect" : [ 146.0, 246.0, 46.0, 20.0 ],
					"numinlets" : 1,
					"id" : "obj-23"
				}

			}
, 			{
				"box" : 				{
					"maxclass" : "newobj",
					"text" : "route clear read getGLSL getDefaults getParams getNumSamplers",
					"numoutlets" : 7,
					"fontsize" : 12.0,
					"outlettype" : [ "", "", "", "", "", "", "" ],
					"fontname" : "Arial",
					"patching_rect" : [ 70.0, 59.0, 366.0, 20.0 ],
					"numinlets" : 1,
					"id" : "obj-2"
				}

			}
, 			{
				"box" : 				{
					"maxclass" : "inlet",
					"numoutlets" : 1,
					"outlettype" : [ "" ],
					"patching_rect" : [ 27.0, 15.0, 25.0, 25.0 ],
					"numinlets" : 0,
					"id" : "obj-1",
					"comment" : ""
				}

			}
 ],
		"lines" : [ 			{
				"patchline" : 				{
					"source" : [ "obj-29", 5 ],
					"destination" : [ "obj-18", 0 ],
					"hidden" : 0,
					"midpoints" : [ 633.666687, 420.0, 324.5, 402.0 ]
				}

			}
, 			{
				"patchline" : 				{
					"source" : [ "obj-29", 4 ],
					"destination" : [ "obj-18", 0 ],
					"hidden" : 0,
					"midpoints" : [ 580.833313, 420.0, 324.5, 407.0 ]
				}

			}
, 			{
				"patchline" : 				{
					"source" : [ "obj-29", 5 ],
					"destination" : [ "obj-36", 0 ],
					"hidden" : 0,
					"midpoints" : [  ]
				}

			}
, 			{
				"patchline" : 				{
					"source" : [ "obj-29", 4 ],
					"destination" : [ "obj-36", 0 ],
					"hidden" : 0,
					"midpoints" : [  ]
				}

			}
, 			{
				"patchline" : 				{
					"source" : [ "obj-29", 0 ],
					"destination" : [ "obj-18", 0 ],
					"hidden" : 0,
					"midpoints" : [  ]
				}

			}
, 			{
				"patchline" : 				{
					"source" : [ "obj-29", 0 ],
					"destination" : [ "obj-36", 0 ],
					"hidden" : 0,
					"midpoints" : [  ]
				}

			}
, 			{
				"patchline" : 				{
					"source" : [ "obj-29", 1 ],
					"destination" : [ "obj-36", 0 ],
					"hidden" : 0,
					"midpoints" : [  ]
				}

			}
, 			{
				"patchline" : 				{
					"source" : [ "obj-29", 2 ],
					"destination" : [ "obj-36", 0 ],
					"hidden" : 0,
					"midpoints" : [  ]
				}

			}
, 			{
				"patchline" : 				{
					"source" : [ "obj-29", 3 ],
					"destination" : [ "obj-36", 0 ],
					"hidden" : 0,
					"midpoints" : [  ]
				}

			}
, 			{
				"patchline" : 				{
					"source" : [ "obj-29", 1 ],
					"destination" : [ "obj-37", 0 ],
					"hidden" : 0,
					"midpoints" : [  ]
				}

			}
, 			{
				"patchline" : 				{
					"source" : [ "obj-29", 2 ],
					"destination" : [ "obj-39", 0 ],
					"hidden" : 0,
					"midpoints" : [  ]
				}

			}
, 			{
				"patchline" : 				{
					"source" : [ "obj-29", 3 ],
					"destination" : [ "obj-40", 0 ],
					"hidden" : 0,
					"midpoints" : [  ]
				}

			}
, 			{
				"patchline" : 				{
					"source" : [ "obj-28", 0 ],
					"destination" : [ "obj-29", 0 ],
					"hidden" : 0,
					"midpoints" : [  ]
				}

			}
, 			{
				"patchline" : 				{
					"source" : [ "obj-23", 0 ],
					"destination" : [ "obj-13", 0 ],
					"hidden" : 0,
					"midpoints" : [  ]
				}

			}
, 			{
				"patchline" : 				{
					"source" : [ "obj-4", 0 ],
					"destination" : [ "obj-8", 0 ],
					"hidden" : 0,
					"midpoints" : [ 37.5, 231.0, 238.5, 231.0 ]
				}

			}
, 			{
				"patchline" : 				{
					"source" : [ "obj-15", 0 ],
					"destination" : [ "obj-10", 0 ],
					"hidden" : 0,
					"midpoints" : [ 78.0, 133.0 ]
				}

			}
, 			{
				"patchline" : 				{
					"source" : [ "obj-15", 1 ],
					"destination" : [ "obj-5", 0 ],
					"hidden" : 0,
					"midpoints" : [  ]
				}

			}
, 			{
				"patchline" : 				{
					"source" : [ "obj-8", 0 ],
					"destination" : [ "obj-63", 0 ],
					"hidden" : 0,
					"midpoints" : [  ]
				}

			}
, 			{
				"patchline" : 				{
					"source" : [ "obj-14", 0 ],
					"destination" : [ "obj-8", 0 ],
					"hidden" : 0,
					"midpoints" : [  ]
				}

			}
, 			{
				"patchline" : 				{
					"source" : [ "obj-10", 0 ],
					"destination" : [ "obj-14", 0 ],
					"hidden" : 0,
					"midpoints" : [  ]
				}

			}
, 			{
				"patchline" : 				{
					"source" : [ "obj-5", 0 ],
					"destination" : [ "obj-8", 0 ],
					"hidden" : 0,
					"midpoints" : [  ]
				}

			}
, 			{
				"patchline" : 				{
					"source" : [ "obj-34", 0 ],
					"destination" : [ "obj-13", 0 ],
					"hidden" : 0,
					"midpoints" : [  ]
				}

			}
, 			{
				"patchline" : 				{
					"source" : [ "obj-33", 0 ],
					"destination" : [ "obj-13", 0 ],
					"hidden" : 0,
					"midpoints" : [  ]
				}

			}
, 			{
				"patchline" : 				{
					"source" : [ "obj-12", 0 ],
					"destination" : [ "obj-41", 0 ],
					"hidden" : 0,
					"midpoints" : [  ]
				}

			}
, 			{
				"patchline" : 				{
					"source" : [ "obj-11", 0 ],
					"destination" : [ "obj-44", 0 ],
					"hidden" : 0,
					"midpoints" : [  ]
				}

			}
, 			{
				"patchline" : 				{
					"source" : [ "obj-9", 0 ],
					"destination" : [ "obj-25", 0 ],
					"hidden" : 0,
					"midpoints" : [  ]
				}

			}
, 			{
				"patchline" : 				{
					"source" : [ "obj-7", 0 ],
					"destination" : [ "obj-4", 0 ],
					"hidden" : 0,
					"midpoints" : [  ]
				}

			}
, 			{
				"patchline" : 				{
					"source" : [ "obj-5", 0 ],
					"destination" : [ "obj-23", 0 ],
					"hidden" : 0,
					"midpoints" : [  ]
				}

			}
, 			{
				"patchline" : 				{
					"source" : [ "obj-4", 0 ],
					"destination" : [ "obj-34", 0 ],
					"hidden" : 0,
					"midpoints" : [ 37.5, 459.0, 775.5, 459.0 ]
				}

			}
, 			{
				"patchline" : 				{
					"source" : [ "obj-4", 0 ],
					"destination" : [ "obj-33", 0 ],
					"hidden" : 0,
					"midpoints" : [ 37.5, 602.0, 238.5, 602.0 ]
				}

			}
, 			{
				"patchline" : 				{
					"source" : [ "obj-4", 0 ],
					"destination" : [ "obj-23", 0 ],
					"hidden" : 0,
					"midpoints" : [ 37.5, 237.0, 155.5, 237.0 ]
				}

			}
, 			{
				"patchline" : 				{
					"source" : [ "obj-25", 0 ],
					"destination" : [ "obj-23", 0 ],
					"hidden" : 0,
					"midpoints" : [  ]
				}

			}
, 			{
				"patchline" : 				{
					"source" : [ "obj-41", 0 ],
					"destination" : [ "obj-34", 0 ],
					"hidden" : 0,
					"midpoints" : [  ]
				}

			}
, 			{
				"patchline" : 				{
					"source" : [ "obj-44", 0 ],
					"destination" : [ "obj-33", 0 ],
					"hidden" : 0,
					"midpoints" : [  ]
				}

			}
, 			{
				"patchline" : 				{
					"source" : [ "obj-37", 0 ],
					"destination" : [ "obj-33", 0 ],
					"hidden" : 0,
					"midpoints" : [  ]
				}

			}
, 			{
				"patchline" : 				{
					"source" : [ "obj-39", 0 ],
					"destination" : [ "obj-33", 0 ],
					"hidden" : 0,
					"midpoints" : [  ]
				}

			}
, 			{
				"patchline" : 				{
					"source" : [ "obj-40", 0 ],
					"destination" : [ "obj-33", 0 ],
					"hidden" : 0,
					"midpoints" : [  ]
				}

			}
, 			{
				"patchline" : 				{
					"source" : [ "obj-52", 0 ],
					"destination" : [ "obj-50", 0 ],
					"hidden" : 0,
					"midpoints" : [  ]
				}

			}
, 			{
				"patchline" : 				{
					"source" : [ "obj-50", 0 ],
					"destination" : [ "obj-33", 0 ],
					"hidden" : 0,
					"midpoints" : [  ]
				}

			}
, 			{
				"patchline" : 				{
					"source" : [ "obj-40", 0 ],
					"destination" : [ "obj-52", 0 ],
					"hidden" : 0,
					"midpoints" : [  ]
				}

			}
, 			{
				"patchline" : 				{
					"source" : [ "obj-39", 0 ],
					"destination" : [ "obj-52", 0 ],
					"hidden" : 0,
					"midpoints" : [  ]
				}

			}
, 			{
				"patchline" : 				{
					"source" : [ "obj-37", 0 ],
					"destination" : [ "obj-52", 0 ],
					"hidden" : 0,
					"midpoints" : [  ]
				}

			}
, 			{
				"patchline" : 				{
					"source" : [ "obj-53", 0 ],
					"destination" : [ "obj-54", 0 ],
					"hidden" : 0,
					"midpoints" : [  ]
				}

			}
, 			{
				"patchline" : 				{
					"source" : [ "obj-54", 0 ],
					"destination" : [ "obj-34", 0 ],
					"hidden" : 0,
					"midpoints" : [  ]
				}

			}
, 			{
				"patchline" : 				{
					"source" : [ "obj-63", 0 ],
					"destination" : [ "obj-68", 0 ],
					"hidden" : 0,
					"midpoints" : [  ]
				}

			}
, 			{
				"patchline" : 				{
					"source" : [ "obj-63", 1 ],
					"destination" : [ "obj-68", 0 ],
					"hidden" : 0,
					"midpoints" : [  ]
				}

			}
, 			{
				"patchline" : 				{
					"source" : [ "obj-68", 0 ],
					"destination" : [ "obj-28", 0 ],
					"hidden" : 0,
					"midpoints" : [  ]
				}

			}
, 			{
				"patchline" : 				{
					"source" : [ "obj-36", 0 ],
					"destination" : [ "obj-53", 0 ],
					"hidden" : 0,
					"midpoints" : [  ]
				}

			}
, 			{
				"patchline" : 				{
					"source" : [ "obj-36", 0 ],
					"destination" : [ "obj-34", 0 ],
					"hidden" : 0,
					"midpoints" : [  ]
				}

			}
, 			{
				"patchline" : 				{
					"source" : [ "obj-7", 0 ],
					"destination" : [ "obj-6", 2 ],
					"hidden" : 0,
					"midpoints" : [ 17.0, 142.0, 17.0, 338.0 ]
				}

			}
, 			{
				"patchline" : 				{
					"source" : [ "obj-6", 0 ],
					"destination" : [ "obj-17", 1 ],
					"hidden" : 0,
					"midpoints" : [  ]
				}

			}
, 			{
				"patchline" : 				{
					"source" : [ "obj-35", 0 ],
					"destination" : [ "obj-52", 0 ],
					"hidden" : 0,
					"midpoints" : [  ]
				}

			}
, 			{
				"patchline" : 				{
					"source" : [ "obj-35", 0 ],
					"destination" : [ "obj-33", 0 ],
					"hidden" : 0,
					"midpoints" : [  ]
				}

			}
, 			{
				"patchline" : 				{
					"source" : [ "obj-6", 0 ],
					"destination" : [ "obj-35", 1 ],
					"hidden" : 0,
					"midpoints" : [  ]
				}

			}
, 			{
				"patchline" : 				{
					"source" : [ "obj-1", 0 ],
					"destination" : [ "obj-2", 0 ],
					"hidden" : 0,
					"midpoints" : [  ]
				}

			}
, 			{
				"patchline" : 				{
					"source" : [ "obj-2", 0 ],
					"destination" : [ "obj-7", 0 ],
					"hidden" : 0,
					"midpoints" : [  ]
				}

			}
, 			{
				"patchline" : 				{
					"source" : [ "obj-2", 2 ],
					"destination" : [ "obj-9", 0 ],
					"hidden" : 0,
					"midpoints" : [ 195.166672, 122.0, 220.5, 122.0 ]
				}

			}
, 			{
				"patchline" : 				{
					"source" : [ "obj-2", 3 ],
					"destination" : [ "obj-11", 0 ],
					"hidden" : 0,
					"midpoints" : [ 253.0, 373.0, 69.5, 373.0 ]
				}

			}
, 			{
				"patchline" : 				{
					"source" : [ "obj-2", 4 ],
					"destination" : [ "obj-12", 0 ],
					"hidden" : 0,
					"midpoints" : [ 310.833344, 132.0, 804.5, 132.0 ]
				}

			}
, 			{
				"patchline" : 				{
					"source" : [ "obj-2", 1 ],
					"destination" : [ "obj-15", 0 ],
					"hidden" : 0,
					"midpoints" : [  ]
				}

			}
, 			{
				"patchline" : 				{
					"source" : [ "obj-2", 5 ],
					"destination" : [ "obj-17", 0 ],
					"hidden" : 0,
					"midpoints" : [ 368.666656, 267.0, 294.5, 267.0 ]
				}

			}
, 			{
				"patchline" : 				{
					"source" : [ "obj-17", 0 ],
					"destination" : [ "obj-3", 0 ],
					"hidden" : 0,
					"midpoints" : [  ]
				}

			}
, 			{
				"patchline" : 				{
					"source" : [ "obj-18", 1 ],
					"destination" : [ "obj-6", 0 ],
					"hidden" : 0,
					"midpoints" : [  ]
				}

			}
, 			{
				"patchline" : 				{
					"source" : [ "obj-18", 0 ],
					"destination" : [ "obj-35", 0 ],
					"hidden" : 0,
					"midpoints" : [  ]
				}

			}
 ]
	}

}
